<svg clip-rule="evenodd" fill-rule="evenodd" stroke-linejoin="round" stroke-miterlimit="2" viewBox="0 0 300 98" xmlns="http://www.w3.org/2000/svg" xmlns:xlink="http://www.w3.org/1999/xlink"><clipPath id="a"><path clip-rule="evenodd" d="m0 0h455v148h-455z"/></clipPath><g clip-path="url(#a)" transform="matrix(.659007 0 0 .659007 -.000093 .000082)"><g fill="#fff"><path d="m2774.09 1269.27c26.8-19.06 59.55-30.27 94.91-30.27 90.51 0 164 73.49 164 164s-73.49 164-164 164c-35.36 0-68.11-11.21-94.91-30.27 15.8 6.01 32.94 9.31 50.84 9.31 78.95 0 143.04-64.09 143.04-143.04s-64.09-143.04-143.04-143.04c-17.9 0-35.04 3.3-50.84 9.31z" transform="matrix(-.195312 0 0 -.195312 912.345264 334.188496)"/><path d="m2730.86 1306.16c19.5-13.95 43.37-22.16 69.14-22.16 65.68 0 119 53.32 119 119s-53.32 119-119 119c-25.77 0-49.64-8.21-69.14-22.16 10.97 3.99 22.8 6.16 35.14 6.16 56.85 0 103-46.15 103-103s-46.15-103-103-103c-12.34 0-24.17 2.17-35.14 6.16z" transform="matrix(-.195312 0 0 -.195312 912.345264 334.188496)"/><path d="m2720 1332.99c7.53-2.59 15.6-3.99 24-3.99 40.84 0 74 33.16 74 74s-33.16 74-74 74c-8.4 0-16.47-1.4-24-3.98 29.08-9.98 50-37.58 50-70.02s-20.92-60.04-50-70.01z" transform="matrix(-.195312 0 0 -.195312 912.345264 334.188496)"/><path d="m2541.74 1947.81-4.93 5.07v16.12h-11.1v-70.15h11.1v40.46l3.47-4.33 13.65-15.4h13.34l-18.36 20.6 20.32 28.82h-12.83z" fill-rule="nonzero" transform="matrix(1.30739 0 0 1.30739 -2908.13 -2482.54)"/><g transform="matrix(1.30739 0 0 1.30739 -3303.47 -2482.54)"><g fill-rule="nonzero"><path d="m2565.63 1939.31h-27.32v20.46h31.93v9.23h-43.48v-66.5h43.16v9.32h-31.61v18.36h27.32z"/><path d="m2594.67 1953.11 10.05-33.53h11.83l-19.64 56.91c-3.01 8.31-8.13 12.47-15.34 12.47-1.62 0-3.4-.28-5.35-.82v-8.59l2.1.14c2.8 0 4.91-.51 6.33-1.53 1.41-1.02 2.53-2.74 3.36-5.14l1.59-4.25-17.35-49.19h11.96z"/><path d="m2644.09 1969.91c-7.03 0-12.73-2.21-17.1-6.64s-6.56-10.33-6.56-17.7v-1.37c0-4.93.95-9.34 2.86-13.22 1.9-3.88 4.57-6.9 8.01-9.07 3.44-2.16 7.28-3.24 11.51-3.24 6.73 0 11.93 2.15 15.6 6.44s5.5 10.37 5.5 18.22v4.48h-32.29c.34 4.08 1.7 7.31 4.09 9.68 2.39 2.38 5.4 3.56 9.02 3.56 5.08 0 9.22-2.05 12.42-6.16l5.98 5.71c-1.97 2.95-4.62 5.24-7.92 6.87s-7.01 2.44-11.12 2.44zm-1.33-42.33c-3.04 0-5.5 1.06-7.37 3.19s-3.07 5.1-3.59 8.91h21.15v-.82c-.24-3.72-1.23-6.53-2.97-8.43s-4.14-2.85-7.22-2.85z"/><path d="m2715.89 1944.79c0 7.68-1.72 13.78-5.14 18.32-3.43 4.53-8.14 6.8-14.14 6.8-5.78 0-10.29-2.08-13.52-6.25l-.54 5.34h-10.05v-70.15h11.1v25.48c3.19-3.77 7.5-5.66 12.92-5.66 6.03 0 10.76 2.24 14.2 6.71 3.44 4.48 5.17 10.74 5.17 18.77zm-11.1-.95c0-5.36-.95-9.38-2.84-12.06-1.88-2.68-4.62-4.02-8.22-4.02-4.81 0-8.19 2.1-10.13 6.3v20.37c1.97 4.29 5.38 6.44 10.23 6.44 3.47 0 6.15-1.29 8.03-3.88 1.89-2.59 2.87-6.5 2.93-11.74z"/></g><path d="m2725.89 1898.85h11.098v70.151h-11.098z"/><path d="m2760.87 1969h-11.1v-49.42h11.1zm-11.78-62.25c0-1.7.54-3.12 1.62-4.25 1.08-1.12 2.63-1.69 4.64-1.69 2 0 3.56.57 4.65 1.69 1.1 1.13 1.65 2.55 1.65 4.25 0 1.67-.55 3.07-1.65 4.18-1.09 1.11-2.65 1.67-4.65 1.67-2.01 0-3.56-.56-4.64-1.67s-1.62-2.51-1.62-4.18z" fill-rule="nonzero"/></g></g><g fill-rule="nonzero" transform="translate(-5920.2 -1610.09)"><g fill="#fff"><path d="m6054.87 1725h6.09v32h-5.62v-21.9l-8.56 18.57h-3.93l-8.49-18.57v21.9h-5.64v-32h6.04l10.14 21.07z"/><path d="m6089.88 1732.92v24.08h-5.23v-3.24c-.75 1.08-1.71 1.96-2.86 2.64-1.15.69-2.56 1.03-4.22 1.03-1.57 0-3.01-.32-4.32-.95-1.31-.64-2.44-1.51-3.39-2.63-.96-1.12-1.7-2.43-2.22-3.94-.53-1.51-.79-3.13-.79-4.89 0-1.72.27-3.34.82-4.86.55-1.53 1.31-2.86 2.27-4 .97-1.13 2.12-2.03 3.45-2.7 1.33-.66 2.78-.99 4.35-.99.95 0 1.81.12 2.57.37.76.24 1.42.54 1.98.89.57.36 1.03.74 1.41 1.14.38.41.67.77.87 1.1v-3.05zm-17.74 12.02c0 1.01.14 1.97.42 2.88s.68 1.71 1.22 2.4c.53.69 1.18 1.24 1.95 1.66.77.41 1.64.62 2.63.62 1.02 0 1.92-.21 2.71-.62.78-.42 1.44-.97 1.97-1.66s.94-1.49 1.21-2.4.4-1.87.4-2.88-.14-1.98-.42-2.89c-.29-.92-.71-1.73-1.25-2.44-.55-.7-1.21-1.26-1.99-1.67-.77-.42-1.65-.62-2.63-.62-.99 0-1.86.2-2.63.62-.77.41-1.42.97-1.95 1.67-.54.71-.94 1.52-1.22 2.44-.28.91-.42 1.88-.42 2.89z"/><path d="m6101.84 1757h-5.47v-24.08h5.28v4.27c.25-.77.61-1.45 1.08-2.04s1-1.08 1.59-1.48 1.24-.7 1.92-.9c.7-.2 1.4-.3 2.11-.3.21 0 .43.01.65.01.22.01.44.03.65.08v5.38c-.28-.07-.56-.12-.82-.14s-.53-.03-.8-.03c-.86 0-1.66.16-2.41.48-.76.32-1.42.78-1.98 1.37-.56.6-1 1.32-1.32 2.17s-.48 1.79-.48 2.83z"/><path d="m6119.49 1757h-5.46v-24.08h5.46zm-6.13-29.55c0-.46.09-.91.26-1.33s.41-.78.7-1.09c.3-.3.66-.55 1.07-.72.42-.18.86-.27 1.35-.27.48 0 .93.09 1.34.27.41.17.78.42 1.08.72.31.31.54.67.72 1.09.17.42.25.87.25 1.33 0 .49-.08.94-.25 1.35-.18.41-.41.77-.72 1.08-.3.3-.67.54-1.08.71s-.86.26-1.34.26c-.49 0-.93-.09-1.35-.26-.41-.17-.77-.41-1.07-.71-.29-.31-.53-.67-.7-1.08s-.26-.86-.26-1.35z"/><path d="m6147.84 1732.92v24.08h-5.23v-3.24c-.75 1.08-1.71 1.96-2.86 2.64-1.15.69-2.56 1.03-4.23 1.03-1.56 0-3-.32-4.31-.95-1.31-.64-2.44-1.51-3.39-2.63-.96-1.12-1.7-2.43-2.22-3.94-.53-1.51-.79-3.13-.79-4.89 0-1.72.27-3.34.82-4.86.55-1.53 1.31-2.86 2.27-4 .97-1.13 2.12-2.03 3.45-2.7 1.33-.66 2.78-.99 4.34-.99.96 0 1.82.12 2.58.37.76.24 1.42.54 1.98.89.56.36 1.03.74 1.41 1.14.38.41.67.77.87 1.1v-3.05zm-17.74 12.02c0 1.01.14 1.97.42 2.88s.68 1.71 1.21 2.4c.54.69 1.19 1.24 1.96 1.66.77.41 1.64.62 2.62.62 1.03 0 1.93-.21 2.71-.62.79-.42 1.45-.97 1.98-1.66s.94-1.49 1.2-2.4c.28-.91.41-1.87.41-2.88s-.14-1.98-.43-2.89c-.28-.92-.7-1.73-1.24-2.44-.55-.7-1.21-1.26-1.99-1.67-.78-.42-1.65-.62-2.64-.62-.98 0-1.85.2-2.62.62-.77.41-1.42.97-1.96 1.67-.53.71-.93 1.52-1.21 2.44-.28.91-.42 1.88-.42 2.89z"/><path d="m6180.95 1734.8c0-1.54-.49-2.73-1.48-3.59-.99-.85-2.54-1.28-4.65-1.28h-5.23v10.1h5.23c1.07 0 1.99-.13 2.76-.39.77-.25 1.4-.61 1.9-1.07.5-.47.87-1.02 1.11-1.66s.36-1.34.36-2.11zm-17.18-9.8h12.01c1.71 0 3.25.24 4.62.72 1.36.47 2.52 1.14 3.46 1.99.95.86 1.68 1.86 2.19 3.02.52 1.16.77 2.42.77 3.79 0 1.18-.16 2.24-.48 3.18s-.76 1.78-1.32 2.51-1.23 1.38-1.99 1.93c-.76.56-1.58 1.03-2.46 1.43l8.22 13.43h-6.62l-7.2-12.19h-5.38v12.19h-5.82z"/><path d="m6214.1 1744.94c0 1.73-.27 3.36-.83 4.88-.55 1.51-1.34 2.84-2.35 3.97s-2.22 2.02-3.64 2.67c-1.41.64-2.99.97-4.72.97-1.74 0-3.32-.33-4.74-.97-1.43-.65-2.64-1.54-3.66-2.67-1.01-1.13-1.78-2.46-2.33-3.97-.55-1.52-.82-3.15-.82-4.88 0-1.72.27-3.34.82-4.86.55-1.51 1.32-2.84 2.33-3.97 1.02-1.13 2.23-2.02 3.66-2.67 1.42-.64 3-.97 4.74-.97 1.73 0 3.31.33 4.72.97 1.42.65 2.63 1.54 3.64 2.67s1.8 2.46 2.35 3.97c.56 1.52.83 3.14.83 4.86zm-5.29 0c0-1-.14-1.94-.42-2.84-.27-.9-.68-1.69-1.2-2.37-.53-.68-1.18-1.22-1.97-1.62-.78-.4-1.67-.6-2.66-.6-1.02 0-1.91.2-2.7.6-.78.4-1.44.94-1.97 1.62s-.94 1.47-1.22 2.37c-.27.9-.41 1.84-.41 2.84 0 1.01.14 1.97.41 2.87.28.9.69 1.7 1.22 2.39s1.19 1.24 1.97 1.65c.79.4 1.68.6 2.7.6.99 0 1.88-.2 2.66-.6.79-.41 1.44-.96 1.97-1.65.52-.69.93-1.49 1.2-2.39.28-.9.42-1.86.42-2.87zm-13.26-17.93c0-.43.08-.83.24-1.2.15-.37.37-.69.64-.97s.59-.49.95-.65.76-.24 1.18-.24c.43 0 .83.08 1.2.24s.69.37.97.65.5.6.66.97c.17.37.25.77.25 1.2 0 .42-.08.82-.25 1.19-.16.37-.38.69-.66.95s-.6.47-.97.63-.77.24-1.2.24c-.42 0-.82-.08-1.18-.24s-.68-.37-.95-.63-.49-.58-.64-.95c-.16-.37-.24-.77-.24-1.19zm7.88 0c0-.43.08-.83.23-1.2.16-.37.37-.69.64-.97.26-.28.58-.49.94-.65.37-.16.77-.24 1.2-.24s.83.08 1.2.24.69.37.97.65c.27.28.49.6.65.97.15.37.23.77.23 1.2 0 .42-.08.82-.23 1.19-.16.37-.38.69-.65.95-.28.26-.6.47-.97.63s-.77.24-1.2.24-.83-.08-1.2-.24c-.36-.16-.68-.37-.94-.63-.27-.26-.48-.58-.64-.95-.15-.37-.23-.77-.23-1.19z"/><path d="m6224.67 1736.1c.31-.48.69-.95 1.13-1.39s.95-.83 1.53-1.16c.57-.33 1.22-.6 1.94-.79s1.52-.29 2.4-.29c1.4 0 2.6.25 3.6.76s1.83 1.19 2.48 2.05c.64.86 1.12 1.87 1.43 3.03.3 1.16.46 2.39.46 3.7v14.99h-5.51v-14.3c0-.53-.06-1.11-.17-1.75-.12-.64-.33-1.25-.65-1.81s-.76-1.03-1.33-1.42c-.56-.38-1.29-.57-2.19-.57-.84 0-1.57.17-2.2.51-.64.34-1.16.79-1.58 1.34-.42.56-.74 1.2-.95 1.91-.22.72-.32 1.45-.32 2.19v13.9h-5.47v-24.08h5.23v3.18z"/><path d="m6251.42 1736.1c.31-.48.69-.95 1.13-1.39s.95-.83 1.53-1.16c.57-.33 1.22-.6 1.94-.79s1.52-.29 2.4-.29c1.4 0 2.6.25 3.6.76s1.83 1.19 2.47 2.05c.65.86 1.13 1.87 1.44 3.03.3 1.16.45 2.39.45 3.7v14.99h-5.5v-14.3c0-.53-.06-1.11-.17-1.75-.12-.64-.33-1.25-.66-1.81-.32-.56-.76-1.03-1.32-1.42-.56-.38-1.29-.57-2.19-.57-.84 0-1.57.17-2.21.51-.63.34-1.16.79-1.58 1.34-.42.56-.73 1.2-.95 1.91-.21.72-.32 1.45-.32 2.19v13.9h-5.46v-24.08h5.23v3.18z"/><path d="m6278.28 1736.06c.68-1.1 1.61-1.97 2.78-2.62 1.18-.64 2.57-.97 4.2-.97 1.49 0 2.88.33 4.18.97 1.3.65 2.42 1.54 3.36 2.67.95 1.13 1.69 2.46 2.23 3.97.54 1.52.81 3.14.81 4.86 0 1.73-.27 3.36-.81 4.88-.54 1.51-1.29 2.84-2.26 3.97s-2.12 2.02-3.45 2.67c-1.33.64-2.78.97-4.36.97-.8 0-1.54-.09-2.22-.27-.69-.18-1.31-.43-1.88-.75s-1.09-.7-1.55-1.15-.87-.94-1.23-1.46v3.2h-5.27v-32h5.47zm12.27 8.88c0-1-.14-1.95-.43-2.87-.28-.92-.69-1.73-1.22-2.44-.54-.7-1.19-1.26-1.96-1.68s-1.63-.63-2.6-.63c-.98 0-1.86.21-2.64.63-.77.42-1.44.98-1.98 1.68-.55.71-.97 1.52-1.25 2.44-.29.92-.43 1.87-.43 2.87 0 1.01.14 1.97.4 2.88.28.91.68 1.71 1.21 2.4.54.69 1.19 1.24 1.98 1.66.78.41 1.68.62 2.71.62.97 0 1.83-.21 2.6-.62.77-.42 1.42-.97 1.96-1.66.53-.69.94-1.49 1.22-2.4.29-.91.43-1.87.43-2.88z"/><path d="m6322.76 1732.92v24.08h-5.23v-3.24c-.75 1.08-1.71 1.96-2.86 2.64-1.15.69-2.56 1.03-4.23 1.03-1.56 0-3-.32-4.31-.95-1.31-.64-2.44-1.51-3.39-2.63-.96-1.12-1.69-2.43-2.22-3.94s-.79-3.13-.79-4.89c0-1.72.27-3.34.82-4.86.55-1.53 1.31-2.86 2.27-4 .97-1.13 2.12-2.03 3.45-2.7 1.33-.66 2.78-.99 4.35-.99.95 0 1.81.12 2.57.37.76.24 1.42.54 1.98.89.57.36 1.04.74 1.41 1.14.38.41.67.77.87 1.1v-3.05zm-17.74 12.02c0 1.01.14 1.97.42 2.88s.68 1.71 1.22 2.4c.53.69 1.18 1.24 1.95 1.66.77.41 1.64.62 2.63.62 1.02 0 1.92-.21 2.71-.62.78-.42 1.44-.97 1.97-1.66s.94-1.49 1.21-2.4.4-1.87.4-2.88-.14-1.98-.42-2.89c-.29-.92-.71-1.73-1.25-2.44-.55-.7-1.21-1.26-1.99-1.67-.77-.42-1.65-.62-2.63-.62-.99 0-1.86.2-2.63.62-.77.41-1.42.97-1.95 1.67-.54.71-.94 1.52-1.22 2.44-.28.91-.42 1.88-.42 2.89zm-.08-17.93c0-.43.08-.83.23-1.2.16-.37.37-.69.63-.97.27-.28.58-.49.95-.65s.77-.24 1.2-.24.82.08 1.19.24.7.37.97.65c.28.28.5.6.66.97.15.37.23.77.23 1.2 0 .42-.08.82-.23 1.19-.16.37-.38.69-.66.95-.27.26-.6.47-.97.63s-.76.24-1.19.24-.83-.08-1.2-.24-.68-.37-.95-.63c-.26-.26-.47-.58-.63-.95-.15-.37-.23-.77-.23-1.19zm7.85 0c0-.43.08-.83.24-1.2s.37-.69.64-.97.59-.49.96-.65.77-.24 1.19-.24c.43 0 .83.08 1.2.24s.69.37.97.65.5.6.65.97c.16.37.24.77.24 1.2 0 .42-.08.82-.24 1.19-.15.37-.37.69-.65.95s-.6.47-.97.63-.77.24-1.2.24c-.42 0-.82-.08-1.19-.24s-.69-.37-.96-.63-.48-.58-.64-.95-.24-.77-.24-1.19z"/><path d="m6339.65 1732.47c1.76 0 3.35.33 4.76.97 1.41.65 2.58 1.55 3.5 2.7l-3.46 3.59c-.21-.23-.46-.47-.73-.74-.28-.26-.61-.5-1-.72-.38-.22-.82-.4-1.31-.55-.49-.14-1.05-.21-1.68-.21-1.01 0-1.91.2-2.72.6-.8.4-1.48.94-2.04 1.62-.55.68-.98 1.47-1.27 2.37s-.43 1.84-.43 2.84c0 1.01.14 1.97.43 2.87s.71 1.7 1.26 2.39 1.22 1.24 2 1.65c.78.4 1.66.6 2.65.6.61 0 1.19-.07 1.73-.23s1.03-.35 1.47-.58.83-.47 1.17-.72c.34-.26.62-.49.84-.69l3.35 3.57c-.49.5-1.02.97-1.61 1.41-.6.44-1.25.82-1.96 1.15s-1.49.59-2.32.78c-.84.19-1.75.29-2.72.29-1.78 0-3.38-.33-4.8-.97-1.42-.65-2.63-1.54-3.63-2.66-.99-1.13-1.76-2.44-2.3-3.95-.55-1.51-.82-3.12-.82-4.83 0-1.76.28-3.4.84-4.93.55-1.52 1.34-2.85 2.36-3.98 1.01-1.13 2.24-2.02 3.67-2.67 1.43-.64 3.02-.97 4.77-.97z"/></g><path d="m6364.6 1742.44 9.76 14.56h-6.25l-6.99-10.63-3.71 4.29v6.34h-5.47v-32h5.47v18.93l9.31-11.01h6.34z" fill="#f3fffd"/></g></g></svg>