<svg clip-rule="evenodd" fill-rule="evenodd" stroke-linejoin="round" stroke-miterlimit="2" viewBox="0 0 1500 1500" xmlns="http://www.w3.org/2000/svg"><g transform="matrix(1.3367 0 0 1.3367 -252.525 -252.525)"><path d="m1034 284.89c0-18.271-7.26-35.793-20.18-48.713-12.92-12.919-30.439-20.177-48.71-20.177h-430.22c-18.271 0-35.793 7.258-48.713 20.177-12.919 12.92-20.177 30.442-20.177 48.713v930.22c0 18.27 7.258 35.79 20.177 48.71 12.92 12.92 30.442 20.18 48.713 20.18h430.22c18.271 0 35.79-7.26 48.71-20.18s20.18-30.44 20.18-48.71z" fill="#ebebeb"/><path d="m1061.08 284.89c0-25.454-10.11-49.865-28.11-67.864-17.99-17.998-42.406-28.109-67.86-28.109-109.238 0-320.982 0-430.22 0-25.454 0-49.865 10.111-67.864 28.109-17.998 17.999-28.109 42.41-28.109 67.864v930.22c0 25.45 10.111 49.87 28.109 67.86 17.999 18 42.41 28.11 67.864 28.11h430.22c25.454 0 49.87-10.11 67.86-28.11 18-17.99 28.11-42.41 28.11-67.86zm-405.788-41.807h-120.402c-11.088 0-21.722 4.405-29.562 12.245s-12.245 18.474-12.245 29.562v930.22c0 11.09 4.405 21.72 12.245 29.56s18.474 12.25 29.562 12.25h430.22c11.088 0 21.722-4.41 29.562-12.25 7.838-7.84 12.248-18.47 12.248-29.56v-930.22c0-11.088-4.41-21.722-12.248-29.562-7.84-7.84-18.474-12.245-29.562-12.245h-120.402v13.656c0 10.202-4.053 19.987-11.267 27.202-7.215 7.214-17 11.267-27.202 11.267-32.088 0-80.39 0-112.478 0-10.202 0-19.987-4.053-27.202-11.267-7.214-7.215-11.267-17-11.267-27.202z" fill="#fff"/></g></svg>